<?xml version="1.0" encoding="utf-8"?>
<!-- Generator: Adobe Illustrator 22.1.0, SVG Export Plug-In . SVG Version: 6.00 Build 0)  -->
<svg version="1.1" xmlns="http://www.w3.org/2000/svg" xmlns:xlink="http://www.w3.org/1999/xlink" x="0px" y="0px"
	 viewBox="0 0 595.3 841.9" style="enable-background:new 0 0 595.3 841.9;" xml:space="preserve">
<style type="text/css">
	.st0{fill-rule:evenodd;clip-rule:evenodd;fill:#D0D0D0;}
	.st1{fill-rule:evenodd;clip-rule:evenodd;fill:#E3E3E3;}
	.st2{fill:#E3E3E3;}
	.st3{fill:#FFFFFF;stroke:#000000;stroke-width:0.2835;stroke-miterlimit:10;}
	.st4{fill:none;stroke:#000000;stroke-width:0.2835;stroke-miterlimit:10;}
</style>
<g id="Layer_2">
	<g>
		<path class="st0" d="M337.4,407.9c-9.1,12-23.5,19.8-39.8,19.8c-27.5,0-49.9-22.3-49.9-49.9c0-14.3,6-27.2,15.6-36.3h0.8
			c3.5,0,6.6,2.5,9.3,7.4l2.2,4c1.9,3.4,3.6,5.8,5.1,7.3c1.6,1.5,3.6,2.8,6,3.7c-4.3,2.4-7.6,5.4-10,9.2c-2.4,3.7-3.5,7.8-3.5,12.2
			c0,6.4,2.4,12,7.2,16.8c4.8,4.7,10.4,7.1,16.9,7.1c6.5,0,12.1-2.4,16.9-7.1c3.3-3.3,5.5-7,6.5-11.2c-0.6,3.6-0.8,6.5-0.5,8.7
			c0.5,3.1,1.9,5.6,4.4,7.5c2.5,1.8,5.4,2.5,8.6,2C334.9,409,336.2,408.5,337.4,407.9L337.4,407.9z"/>
		<path class="st0" d="M297.6,328c11,0,21.2,3.6,29.5,9.6c-2,0.4-4,1.5-5.8,3.2c-3.3-1.4-7-1.7-11.2-1.1c-5.3,0.8-9.5,3-12.5,6.8
			c-3,3.7-4.2,8-3.5,12.9c0.1,1,0.4,2,0.7,3.1c-2.3-0.3-4.3-0.9-5.9-2c-2.2-1.4-4.4-3.9-6.4-7.4l-3.1-5.4
			c-3.4-5.9-7.2-9.2-11.2-10.1C276.4,331.6,286.6,328,297.6,328L297.6,328z"/>
		<path class="st1" d="M289.5,386.4c0.3,2.3,1.4,4.2,3.2,5.6c1.8,1.4,3.8,1.9,6.1,1.6c2.3-0.3,4-1.4,5.4-3.3
			c1.4-1.8,1.9-3.9,1.5-6.2c-0.3-2.3-1.4-4.2-3.2-5.6c-1.8-1.4-3.9-1.9-6.2-1.6c-2.3,0.3-4,1.4-5.4,3.3
			C289.7,382,289.2,384.1,289.5,386.4L289.5,386.4z"/>
		<path class="st1" d="M317.9,344.6c-2.2-0.8-4.6-1-7.2-0.6c-4,0.6-7,2.2-9.1,5c-2.1,2.8-2.8,6.1-2.3,9.9c0.2,1.1,0.5,2.3,0.9,3.5
			c2.5-0.3,4.5-0.9,6.2-2c2.2-1.4,4.4-3.9,6.4-7.4l3.1-5.4C316.6,346.6,317.3,345.6,317.9,344.6L317.9,344.6z"/>
		<path class="st1" d="M321.5,388.8c0.6-3,1.5-6.5,2.7-10.5c2.1-6.8,3.7-14.6,2.6-21.8c-0.6-3.8-2-6.9-4.3-9.1
			c-0.3,0.5-0.6,0.9-0.9,1.4l-2.2,4c-1.9,3.4-3.6,5.8-5.1,7.3c-1.6,1.5-3.6,2.8-6,3.7c4.3,2.4,7.6,5.4,10,9.2
			c2.4,3.7,3.5,7.8,3.5,12.2C321.8,386.6,321.7,387.7,321.5,388.8L321.5,388.8z"/>
		<path class="st1" d="M331.8,341.6c9.6,9.1,15.6,22,15.6,36.3c0,5.8-1,11.4-2.8,16.5c-2.1,3.8-7,9.3-11.5,10
			c-1.9,0.3-3.5-0.1-4.9-1.3c-1.4-1.1-2.2-2.7-2.5-4.7c-0.4-2.7,0.9-9.1,3.8-19c2.1-7.1,3.6-16.3,2.5-23.7c-0.8-5.1-2.8-9.1-6.2-12
			c1.6-1.4,3.4-2,5.2-2H331.8L331.8,341.6z"/>
		<path class="st1" d="M297.7,403.7c5.1,0,9.4-1.8,13.1-5.3c3.6-3.5,5.4-7.8,5.4-12.8c0-5.1-1.8-9.4-5.4-13c-2.4-2.3-5-3.9-8.1-4.7
			c0.6,1,1.2,2,1.9,3.1l1.8,2.7c3,4.4,4.6,7.7,4.9,9.9c0.5,3.6-0.4,6.9-2.7,9.9c-2.3,3-5.3,4.8-9,5.4c-3.8,0.6-7.2-0.3-10.3-2.6
			c-3.1-2.3-4.9-5.3-5.4-9.2c-0.5-3.7,0.3-7.1,2.5-10.1c2.2-3.1,5.2-4.9,8.8-5.4c1.3-0.2,2.8-0.2,4.5,0.1c-1.1-1.5-2-3-2.8-4.4
			c-4.8,0.2-8.9,1.9-12.4,5.3c-3.6,3.5-5.4,7.9-5.4,13c0,5,1.8,9.3,5.4,12.8C288.2,401.9,292.5,403.7,297.7,403.7L297.7,403.7z"/>
		<path class="st0" d="M175.1,450.4l6.2,41.9h-11.2l-0.5-7.5h-3.9l-0.6,7.5h-11.3l5.5-41.9H175.1L175.1,450.4z M169.4,477.4
			c0-0.3-0.3-2-0.7-5.1c-0.3-2.3-0.5-4.2-0.7-5.8c-0.2-2.3-0.3-4.5-0.3-6.6c-0.2,1.8-0.6,4.1-1,7.2c-0.4,3-0.7,5-0.8,6
			c-0.2,1.7-0.3,3.2-0.3,4.5H169.4L169.4,477.4z M216.9,450.4v41.9h-9.5v-28.3l-3.8,28.3h-6.8l-4-27.7v27.7h-9.5v-41.9h14.1
			c0.4,2.6,0.9,5.6,1.3,8.9l1.5,10.7l2.5-19.6H216.9L216.9,450.4z M233.8,471.6v7.2H220v-7.2H233.8L233.8,471.6z M236.9,450.4h11
			c3,0,5.2,0.2,6.8,0.7c1.6,0.5,2.8,1.1,3.6,2c0.8,0.9,1.4,2,1.6,3.2c0.3,1.3,0.4,3.2,0.4,5.8v3.7c0,1.4-0.1,2.6-0.2,3.5
			c-0.1,0.9-0.3,1.7-0.6,2.4c-0.5,1.2-1.5,2.1-3,2.8c-1.5,0.7-3.4,1-5.8,1h-2.9v16.9h-10.9V450.4L236.9,450.4z M247.8,457.6v10.7
			l0.8,0c1,0,1.7-0.2,2.1-0.7c0.4-0.5,0.6-1.5,0.6-3.1V461c0-1.4-0.2-2.4-0.7-2.8C250.1,457.8,249.2,457.6,247.8,457.6L247.8,457.6z
			 M288.6,465.9h-10.9v-3.8c0-2.4-0.1-3.9-0.3-4.5c-0.2-0.6-0.7-0.9-1.5-0.9c-0.7,0-1.1,0.3-1.4,0.8c-0.2,0.5-0.4,1.9-0.4,4v20.1
			c0,1.9,0.1,3.1,0.4,3.7c0.2,0.6,0.7,0.9,1.4,0.9c0.8,0,1.3-0.3,1.6-1c0.3-0.7,0.5-2,0.5-3.9v-5h-2.2v-6.4h12.8v22.5h-6.9l-1-3
			c-0.7,1.3-1.6,2.2-2.8,2.9c-1.2,0.7-2.5,1-4,1c-1.8,0-3.5-0.4-5.1-1.3c-1.6-0.9-2.8-2-3.7-3.3c-0.8-1.3-1.4-2.7-1.6-4.1
			c-0.2-1.4-0.3-3.6-0.3-6.5v-12.5c0-4,0.2-6.9,0.6-8.8c0.4-1.8,1.7-3.5,3.7-5c2.1-1.5,4.7-2.3,7.9-2.3c3.2,0,5.9,0.7,8,2
			c2.1,1.3,3.5,2.9,4.1,4.7c0.6,1.8,1,4.4,1,7.8V465.9L288.6,465.9z M327.2,465.9h-10.9v-3.8c0-2.4-0.1-3.9-0.3-4.5
			c-0.2-0.6-0.7-0.9-1.5-0.9c-0.7,0-1.1,0.3-1.4,0.8c-0.2,0.5-0.4,1.9-0.4,4v20.1c0,1.9,0.1,3.1,0.4,3.7c0.2,0.6,0.7,0.9,1.4,0.9
			c0.8,0,1.3-0.3,1.6-1c0.3-0.7,0.4-2,0.4-3.9v-5h-2.2v-6.4h12.8v22.5h-6.9l-1-3c-0.7,1.3-1.6,2.2-2.8,2.9c-1.2,0.7-2.5,1-4,1
			c-1.8,0-3.5-0.4-5.1-1.3c-1.6-0.9-2.8-2-3.7-3.3c-0.8-1.3-1.4-2.7-1.6-4.1c-0.2-1.4-0.3-3.6-0.3-6.5v-12.5c0-4,0.2-6.9,0.6-8.8
			c0.4-1.8,1.7-3.5,3.7-5c2.1-1.5,4.7-2.3,7.9-2.3c3.2,0,5.9,0.7,8,2c2.1,1.3,3.5,2.9,4.1,4.7c0.6,1.8,1,4.4,1,7.8V465.9
			L327.2,465.9z M331.4,450.4h7.7c5.2,0,8.7,0.2,10.5,0.6c1.8,0.4,3.3,1.4,4.4,3c1.2,1.6,1.7,4.2,1.7,7.8c0,3.3-0.4,5.5-1.2,6.6
			c-0.8,1.1-2.4,1.8-4.8,2c2.2,0.5,3.6,1.2,4.3,2.1c0.7,0.9,1.2,1.7,1.4,2.5c0.1,0.3,0.2,1,0.2,2.1c0.1,1,0.1,2.4,0.1,4.1v11.1
			h-10.1v-13.9c0-2.2-0.2-3.6-0.5-4.1c-0.4-0.6-1.3-0.8-2.8-0.8v18.9h-10.9V450.4L331.4,450.4z M342.3,457.6v9.3
			c1.2,0,2.1-0.2,2.6-0.5c0.5-0.3,0.7-1.4,0.7-3.3v-2.3c0-1.3-0.2-2.2-0.7-2.6C344.4,457.8,343.6,457.6,342.3,457.6L342.3,457.6z
			 M384.9,475c0,4.2-0.1,7.1-0.3,8.9c-0.2,1.8-0.8,3.4-1.9,4.8c-1.1,1.5-2.5,2.6-4.2,3.4c-1.8,0.8-3.8,1.2-6.2,1.2
			c-2.2,0-4.2-0.4-6-1.1c-1.8-0.7-3.2-1.8-4.3-3.3c-1.1-1.5-1.7-3.1-2-4.8c-0.2-1.7-0.3-4.8-0.3-9.1v-7.2c0-4.3,0.1-7.3,0.3-9
			c0.2-1.7,0.8-3.3,1.8-4.7c1-1.5,2.4-2.6,4.2-3.3c1.8-0.8,3.9-1.1,6.2-1.1c2.2,0,4.2,0.4,6,1.1c1.8,0.7,3.2,1.8,4.3,3.3
			c1.1,1.5,1.8,3.1,2,4.8c0.2,1.7,0.3,4.8,0.3,9.1V475L384.9,475z M374,461.2c0-2-0.1-3.2-0.3-3.7c-0.2-0.6-0.6-0.8-1.3-0.8
			c-0.6,0-1,0.2-1.3,0.7c-0.3,0.4-0.4,1.7-0.4,3.9v19.6c0,2.5,0.1,4,0.3,4.5c0.2,0.5,0.7,0.8,1.4,0.8c0.7,0,1.2-0.3,1.4-1
			c0.2-0.7,0.3-2.2,0.3-4.7V461.2L374,461.2z M413.7,450.4v28c0,3.1-0.1,5.4-0.3,6.7c-0.2,1.3-0.8,2.6-1.8,4c-1,1.3-2.4,2.4-4.1,3.1
			c-0.9,0.3-1.8,0.6-2.7,0.8c-0.9,0.2-2,0.3-3.2,0.3c-2.5,0-4.7-0.4-6.6-1.2c-1.9-0.8-3.4-1.9-4.3-3.2c-0.9-1.3-1.5-2.7-1.7-4.2
			c-0.1-0.7-0.1-1.9-0.2-3.5c-0.1-1.6-0.1-3.6-0.1-5.8v-24.8h10.9v31.4c0,1.8,0.1,3,0.3,3.5c0.2,0.5,0.6,0.8,1.2,0.8
			c0.7,0,1.1-0.3,1.3-0.8c0.2-0.6,0.3-1.9,0.3-4v-30.9H413.7L413.7,450.4z M418,450.4h11c3,0,5.2,0.2,6.8,0.7c1.6,0.5,2.8,1.1,3.6,2
			c0.8,0.9,1.4,2,1.6,3.2c0.3,1.3,0.4,3.2,0.4,5.8v3.7c0,1.4-0.1,2.6-0.2,3.5c-0.1,0.9-0.3,1.7-0.6,2.4c-0.5,1.2-1.5,2.1-3,2.8
			c-1.5,0.7-3.4,1-5.8,1h-2.9v16.9H418V450.4L418,450.4z M428.9,457.6v10.7l0.8,0c1,0,1.7-0.2,2.1-0.7c0.4-0.5,0.6-1.5,0.6-3.1V461
			c0-1.4-0.2-2.4-0.7-2.8C431.2,457.8,430.3,457.6,428.9,457.6L428.9,457.6z"/>
		<path class="st2" d="M160,507.1h-4.5v5.2h4.5V511h1.7v1c0,0.8-0.1,1.3-0.4,1.5c-0.2,0.3-0.7,0.4-1.4,0.4h-4.3
			c-0.7,0-1.2-0.1-1.4-0.4c-0.2-0.3-0.4-0.8-0.4-1.5v-4.3c0-0.8,0.1-1.3,0.4-1.5c0.2-0.3,0.7-0.4,1.4-0.4h4.3c0.7,0,1.2,0.1,1.4,0.4
			c0.2,0.3,0.4,0.8,0.4,1.5v1.1H160V507.1L160,507.1z M165,507.6c0-0.8,0.1-1.3,0.4-1.5c0.2-0.3,0.7-0.4,1.4-0.4h5.3
			c0.7,0,1.2,0.1,1.4,0.4c0.2,0.3,0.4,0.8,0.4,1.5v4.3c0,0.8-0.1,1.3-0.4,1.5c-0.2,0.3-0.7,0.4-1.4,0.4h-5.3c-0.7,0-1.2-0.1-1.4-0.4
			c-0.2-0.3-0.4-0.8-0.4-1.5V507.6L165,507.6z M166.6,512.3h5.5v-5.2h-5.5V512.3L166.6,512.3z M177.3,513.9v-8.2h1.4l3.4,5l3.3-5
			h1.3v8.2h-1.5v-5.1c0-0.1,0-0.2,0-0.4c0-0.2,0-0.3,0-0.5c-0.1,0.2-0.2,0.4-0.2,0.5c-0.1,0.1-0.1,0.3-0.2,0.3l-2.7,4.1h-0.3
			l-2.7-4.1c-0.1-0.2-0.2-0.3-0.3-0.4c-0.1-0.1-0.1-0.3-0.2-0.4c0,0.2,0,0.3,0,0.5c0,0.1,0,0.3,0,0.4v5.1H177.3L177.3,513.9z
			 M190.2,513.9v-8.2h1.4l3.4,5l3.3-5h1.3v8.2H198v-5.1c0-0.1,0-0.2,0-0.4c0-0.2,0-0.3,0-0.5c-0.1,0.2-0.2,0.4-0.2,0.5
			c-0.1,0.1-0.1,0.3-0.2,0.3l-2.7,4.1h-0.3l-2.7-4.1c-0.1-0.2-0.2-0.3-0.3-0.4c-0.1-0.1-0.1-0.3-0.2-0.4c0,0.2,0,0.3,0,0.5
			c0,0.1,0,0.3,0,0.4v5.1H190.2L190.2,513.9z M203.1,513.9v-8.2h7.3v1.4h-5.7v1.8h3.3v1.4h-3.3v2h5.7v1.6H203.1L203.1,513.9z
			 M218.9,507.1h-3.8v2.3h3.8c0.3,0,0.5,0,0.6-0.1c0.1-0.1,0.2-0.3,0.2-0.5v-1c0-0.2-0.1-0.4-0.2-0.5
			C219.4,507.1,219.2,507.1,218.9,507.1L218.9,507.1z M213.5,513.9v-8.2h6.1c0.6,0,1,0.1,1.2,0.4c0.3,0.3,0.4,0.7,0.4,1.2v1.9
			c0,0.6-0.1,1-0.4,1.2c-0.3,0.3-0.7,0.4-1.2,0.4h-0.9l3.3,3.1h-2.4l-2.9-3.1h-1.6v3.1H213.5L213.5,513.9z M230.7,507.1h-4.5v5.2
			h4.5V511h1.7v1c0,0.8-0.1,1.3-0.4,1.5c-0.2,0.3-0.7,0.4-1.4,0.4h-4.3c-0.7,0-1.2-0.1-1.4-0.4c-0.2-0.3-0.4-0.8-0.4-1.5v-4.3
			c0-0.8,0.1-1.3,0.4-1.5c0.2-0.3,0.7-0.4,1.4-0.4h4.3c0.7,0,1.2,0.1,1.4,0.4c0.2,0.3,0.4,0.8,0.4,1.5v1.1h-1.7V507.1L230.7,507.1z
			 M235.8,513.9v-8.2h1.7v8.2H235.8L235.8,513.9z M243,510.6h3.1l-1.5-3.4L243,510.6L243,510.6z M239.8,513.9l4.1-8.2h1.6l4.1,8.2
			h-1.9l-0.9-1.8h-4.5l-0.8,1.8H239.8L239.8,513.9z M251.9,513.9v-8.2h1.7v6.7h5.4v1.6H251.9L251.9,513.9z M267.6,512.5h3.3l0.7-0.7
			l-2.2-2.1l-1.8,1.3V512.5L267.6,512.5z M268,513.9c-0.7,0-1.2-0.1-1.4-0.4c-0.2-0.3-0.4-0.8-0.4-1.5v-0.5c0-0.4,0.1-0.6,0.2-0.8
			c0.1-0.2,0.4-0.4,0.7-0.7l1.5-1c-0.2-0.2-0.4-0.4-0.5-0.6c-0.1-0.2-0.1-0.4-0.1-0.6v-0.5c0-0.5,0.1-0.9,0.4-1.2
			c0.3-0.2,0.7-0.3,1.4-0.3h1.4c0.7,0,1.2,0.1,1.4,0.4c0.2,0.2,0.4,0.7,0.4,1.3v0.7h-1.3V507h-2.3v0.6l3.4,3.2l1.7-1.6l0.9,0.9
			l-1.7,1.6l2.3,2.2h-2.2l-1.2-1.1l-0.6,0.7c-0.2,0.2-0.4,0.3-0.5,0.4c-0.2,0.1-0.4,0.1-0.8,0.1H268L268,513.9z M289.8,507.1h-4.7
			v1.8h4.5c0.7,0,1.2,0.1,1.4,0.4c0.2,0.3,0.4,0.8,0.4,1.5v1.1c0,0.7-0.1,1.3-0.4,1.5c-0.2,0.3-0.7,0.4-1.4,0.4h-4.4
			c-0.7,0-1.2-0.1-1.4-0.4c-0.2-0.3-0.4-0.8-0.4-1.5v-0.6h1.5v1h5.1v-1.9h-4.5c-0.7,0-1.2-0.1-1.4-0.4c-0.2-0.3-0.4-0.8-0.4-1.5
			v-0.9c0-0.8,0.1-1.3,0.4-1.5c0.2-0.3,0.7-0.4,1.4-0.4h4.1c0.7,0,1.1,0.1,1.4,0.4c0.3,0.3,0.4,0.7,0.4,1.4v0.6h-1.5V507.1
			L289.8,507.1z M294.8,513.9v-8.2h7.3v1.4h-5.7v1.8h3.3v1.4h-3.3v2h5.7v1.6H294.8L294.8,513.9z M311.3,507.1h-4.5v5.2h4.5V511h1.7
			v1c0,0.8-0.1,1.3-0.4,1.5c-0.2,0.3-0.7,0.4-1.4,0.4h-4.3c-0.7,0-1.2-0.1-1.4-0.4c-0.2-0.3-0.4-0.8-0.4-1.5v-4.3
			c0-0.8,0.1-1.3,0.4-1.5c0.2-0.3,0.7-0.4,1.4-0.4h4.3c0.7,0,1.2,0.1,1.4,0.4c0.2,0.3,0.4,0.8,0.4,1.5v1.1h-1.7V507.1L311.3,507.1z
			 M318.1,505.7v6.7h4.8v-6.7h1.7v6.3c0,0.8-0.1,1.3-0.4,1.5c-0.2,0.3-0.7,0.4-1.4,0.4h-4.5c-0.7,0-1.2-0.1-1.4-0.4
			c-0.2-0.3-0.4-0.8-0.4-1.5v-6.3H318.1L318.1,505.7z M333.6,507.1h-3.8v2.3h3.8c0.3,0,0.5,0,0.6-0.1c0.1-0.1,0.2-0.3,0.2-0.5v-1
			c0-0.2-0.1-0.4-0.2-0.5C334.1,507.1,333.9,507.1,333.6,507.1L333.6,507.1z M328.2,513.9v-8.2h6.1c0.6,0,1,0.1,1.2,0.4
			c0.3,0.3,0.4,0.7,0.4,1.2v1.9c0,0.6-0.1,1-0.4,1.2c-0.3,0.3-0.7,0.4-1.2,0.4h-0.9l3.3,3.1h-2.4l-2.9-3.1h-1.6v3.1H328.2
			L328.2,513.9z M339.4,513.9v-8.2h1.7v8.2H339.4L339.4,513.9z M348,507.1v6.8h-1.7v-6.8h-3.3v-1.5h8.3v1.5H348L348,507.1z
			 M355.4,513.9v-3.7l-3.7-4.6h2.2l2.5,3.2l2.5-3.2h2l-3.7,4.5v3.7H355.4L355.4,513.9z M373.5,507.1h-3.8v2.2h3.8
			c0.3,0,0.5,0,0.6-0.1c0.1-0.1,0.2-0.3,0.2-0.5v-0.9c0-0.2-0.1-0.4-0.2-0.5C374,507.1,373.8,507.1,373.5,507.1L373.5,507.1z
			 M368.1,513.9v-8.2h6.1c0.6,0,1,0.1,1.2,0.4c0.3,0.3,0.4,0.7,0.4,1.2v1.8c0,0.6-0.1,1-0.4,1.2c-0.3,0.3-0.7,0.4-1.2,0.4h-4.5v3.2
			H368.1L368.1,513.9z M383.8,507.1h-3.8v2.3h3.8c0.3,0,0.5,0,0.6-0.1c0.1-0.1,0.2-0.3,0.2-0.5v-1c0-0.2-0.1-0.4-0.2-0.5
			C384.3,507.1,384.1,507.1,383.8,507.1L383.8,507.1z M378.4,513.9v-8.2h6.1c0.6,0,1,0.1,1.2,0.4c0.3,0.3,0.4,0.7,0.4,1.2v1.9
			c0,0.6-0.1,1-0.4,1.2c-0.3,0.3-0.7,0.4-1.2,0.4h-0.9l3.3,3.1h-2.4l-2.9-3.1h-1.6v3.1H378.4L378.4,513.9z M389.6,513.9v-8.2h1.7
			v8.2H389.6L389.6,513.9z M394.9,513.9v-8.2h1.1l5.1,4.9c0.2,0.2,0.3,0.3,0.5,0.5c0.1,0.1,0.3,0.3,0.4,0.4c0-0.5,0-0.8-0.1-1
			c0-0.2,0-0.3,0-0.4v-4.3h1.5v8.2h-1.1l-5.3-5.1c-0.1-0.1-0.2-0.2-0.3-0.4c-0.1-0.1-0.2-0.2-0.3-0.3c0,0.3,0,0.5,0.1,0.7
			c0,0.2,0,0.4,0,0.6v4.5H394.9L394.9,513.9z M410.3,507.1v6.8h-1.7v-6.8h-3.3v-1.5h8.3v1.5H410.3L410.3,507.1z M415.7,513.9v-8.2
			h1.7v8.2H415.7L415.7,513.9z M421,513.9v-8.2h1.1l5.1,4.9c0.2,0.2,0.3,0.3,0.5,0.5c0.1,0.1,0.2,0.3,0.4,0.4c0-0.5,0-0.8-0.1-1
			c0-0.2,0-0.3,0-0.4v-4.3h1.5v8.2h-1.1l-5.3-5.1c-0.1-0.1-0.2-0.2-0.3-0.4c-0.1-0.1-0.2-0.2-0.3-0.3c0,0.3,0,0.5,0.1,0.7
			c0,0.2,0,0.4,0,0.6v4.5H421L421,513.9z M439.8,507.1h-5.2v5.2h5.2v-1.8h-2.7v-1.4h4.4v2.8c0,0.8-0.1,1.3-0.4,1.5
			c-0.2,0.3-0.7,0.4-1.4,0.4h-4.9c-0.7,0-1.2-0.1-1.4-0.4c-0.2-0.3-0.4-0.8-0.4-1.5v-4.3c0-0.8,0.1-1.3,0.4-1.5
			c0.2-0.3,0.7-0.4,1.4-0.4h4.9c0.7,0,1.2,0.1,1.4,0.4c0.2,0.3,0.4,0.8,0.4,1.5v0.5h-1.6V507.1L439.8,507.1z"/>
	</g>
</g>
<g id="Layer_1">
	<rect x="56.7" y="42.5" class="st3" width="70.9" height="70.9"/>
	<line class="st4" x1="56.7" y1="797.6" x2="538.6" y2="797.6"/>
	<line class="st4" x1="56.7" y1="763.8" x2="538.6" y2="763.8"/>
	<line class="st4" x1="56.7" y1="730.1" x2="538.6" y2="730.1"/>
	<line class="st4" x1="56.7" y1="696.3" x2="538.6" y2="696.3"/>
	<line class="st4" x1="56.7" y1="662.6" x2="538.6" y2="662.6"/>
	<line class="st4" x1="56.7" y1="628.8" x2="538.6" y2="628.8"/>
	<line class="st4" x1="56.7" y1="595.1" x2="538.6" y2="595.1"/>
	<line class="st4" x1="56.7" y1="561.3" x2="538.6" y2="561.3"/>
	<line class="st4" x1="56.7" y1="527.6" x2="538.6" y2="527.6"/>
	<line class="st4" x1="56.7" y1="493.8" x2="538.6" y2="493.8"/>
	<line class="st4" x1="56.7" y1="460.1" x2="538.6" y2="460.1"/>
	<line class="st4" x1="56.7" y1="426.3" x2="538.6" y2="426.3"/>
	<line class="st4" x1="56.7" y1="392.6" x2="538.6" y2="392.6"/>
	<line class="st4" x1="56.7" y1="358.8" x2="538.6" y2="358.8"/>
	<line class="st4" x1="56.7" y1="325.1" x2="538.6" y2="325.1"/>
	<line class="st4" x1="56.7" y1="291.3" x2="538.6" y2="291.3"/>
	<line class="st4" x1="56.7" y1="257.6" x2="538.6" y2="257.6"/>
	<line class="st4" x1="56.7" y1="223.9" x2="538.6" y2="223.9"/>
	<line class="st4" x1="56.7" y1="190.1" x2="538.6" y2="190.1"/>
	<line class="st4" x1="56.7" y1="156.4" x2="538.6" y2="156.4"/>
	<line class="st4" x1="155.9" y1="122.6" x2="538.6" y2="122.6"/>
	<line class="st4" x1="155.9" y1="88.9" x2="538.6" y2="88.9"/>
	<line class="st4" x1="155.9" y1="55.1" x2="538.6" y2="55.1"/>
</g>
</svg>
